<svg width="24" height="28" viewBox="0 0 24 28" fill="none" xmlns="http://www.w3.org/2000/svg">
<mask id="mask0_5_41" style="mask-type:luminance" maskUnits="userSpaceOnUse" x="0" y="4" width="23" height="20">
<path d="M22.0781 4H0.75V24H22.0781V4Z" fill="white"/>
</mask>
<g mask="url(#mask0_5_41)">
<path d="M12.7422 18.7656C13.862 18.5833 14.7474 18.0234 15.3984 17.0859L21.6875 7.32029C21.9479 6.92969 22.0521 6.51302 22 6.07029C21.9219 5.62762 21.7266 5.25002 21.4141 4.93749C21.0495 4.62502 20.6458 4.45575 20.2031 4.42969C19.7864 4.40362 19.3828 4.53382 18.9922 4.82029L9.73438 11.7344C8.77083 12.4896 8.27604 13.4792 8.25 14.7031L12.7422 18.7656ZM12 19.7812L7.46875 15.6797C6.27084 15.7578 5.26823 16.2005 4.46094 17.0078C3.67969 17.8411 3.27604 18.8568 3.25 20.0547C3.25 20.2109 3.26302 20.3672 3.28906 20.5234C3.3151 20.862 3.22395 21.1745 3.01562 21.4609C2.80729 21.7474 2.53385 21.9036 2.19531 21.9297H2C1.63542 21.9297 1.33594 22.0469 1.10156 22.2812C0.867187 22.5156 0.75 22.8151 0.75 23.1797C0.75 23.5443 0.867187 23.8437 1.10156 24.0781C1.33594 24.3125 1.63542 24.4297 2 24.4297H7.625C8.875 24.4036 9.90365 23.974 10.7109 23.1406C11.5442 22.3333 11.9739 21.3047 12 20.0547C12 20.0026 12 19.9505 12 19.8984C12 19.8464 12 19.8073 12 19.7812Z" fill="white"/>
</g>
</svg>
