<svg width="26" height="20" viewBox="0 0 26 20" fill="none" xmlns="http://www.w3.org/2000/svg">
<path d="M15.8516 0.0391006C15.5131 -0.039032 15.1875 0 14.875 0.1562C14.5885 0.312468 14.3932 0.559866 14.2891 0.898399L9.28906 18.3984C9.21094 18.737 9.25 19.0625 9.40625 19.375C9.5625 19.6615 9.80989 19.8568 10.1484 19.9609C10.4869 20.0391 10.8125 20 11.125 19.8438C11.4115 19.6875 11.6068 19.4401 11.7109 19.1016L16.7109 1.6016C16.789 1.26307 16.75 0.937532 16.5938 0.625C16.4375 0.338533 16.1901 0.143234 15.8516 0.0391006ZM18.9766 4.7266C18.7422 4.987 18.625 5.28647 18.625 5.625C18.625 5.96353 18.7422 6.263 18.9766 6.5234L22.4922 10L18.9766 13.4766C18.7422 13.737 18.625 14.0365 18.625 14.375C18.625 14.7135 18.7422 15.013 18.9766 15.2734C19.237 15.5078 19.5365 15.625 19.875 15.625C20.2135 15.625 20.513 15.5078 20.7734 15.2734L25.1484 10.8984C25.3828 10.638 25.5 10.3385 25.5 10C25.5 9.66147 25.3828 9.362 25.1484 9.1016L20.7734 4.7266C20.513 4.4922 20.2135 4.375 19.875 4.375C19.5365 4.375 19.237 4.4922 18.9766 4.7266ZM7.02344 4.7266C6.76302 4.4922 6.46354 4.375 6.125 4.375C5.78646 4.375 5.48698 4.4922 5.22656 4.7266L0.851562 9.1016C0.617187 9.362 0.5 9.66147 0.5 10C0.5 10.3385 0.617187 10.638 0.851562 10.8984L5.22656 15.2734C5.48698 15.5078 5.78646 15.625 6.125 15.625C6.46354 15.625 6.76302 15.5078 7.02344 15.2734C7.25781 15.013 7.375 14.7135 7.375 14.375C7.375 14.0365 7.25781 13.737 7.02344 13.4766L3.50781 10L7.02344 6.5234C7.25781 6.263 7.375 5.96353 7.375 5.625C7.375 5.28647 7.25781 4.987 7.02344 4.7266Z" fill="white"/>
</svg>
